<?xml version="1.0" encoding="UTF-8" standalone="no"?>
<svg
   xmlns:dc="http://purl.org/dc/elements/1.1/"
   xmlns:cc="http://creativecommons.org/ns#"
   xmlns:rdf="http://www.w3.org/1999/02/22-rdf-syntax-ns#"
   xmlns:svg="http://www.w3.org/2000/svg"
   xmlns="http://www.w3.org/2000/svg"
   xmlns:xlink="http://www.w3.org/1999/xlink"
   xmlns:sodipodi="http://sodipodi.sourceforge.net/DTD/sodipodi-0.dtd"
   xmlns:inkscape="http://www.inkscape.org/namespaces/inkscape"
   viewBox="0 0 48 48"
   id="svg2"
   version="1.1"
   inkscape:version="0.48.4 r9939"
   width="100%"
   height="100%"
   sodipodi:docname="SOULMATE-distributor-logo-debian.svg"
   inkscape:export-filename="/home/lgarcia/soulmate-9/SOULMATE-distributor-logo-debian.png"
   inkscape:export-xdpi="468.75"
   inkscape:export-ydpi="468.75">
  <metadata
     id="metadata23">
    <rdf:RDF>
      <cc:Work
         rdf:about="">
        <dc:format>image/svg+xml</dc:format>
        <dc:type
           rdf:resource="http://purl.org/dc/dcmitype/StillImage" />
        <dc:title></dc:title>
      </cc:Work>
    </rdf:RDF>
  </metadata>
  <sodipodi:namedview
     pagecolor="#ffffff"
     bordercolor="#666666"
     borderopacity="1"
     objecttolerance="10"
     gridtolerance="10"
     guidetolerance="10"
     inkscape:pageopacity="0"
     inkscape:pageshadow="2"
     inkscape:window-width="1366"
     inkscape:window-height="689"
     id="namedview21"
     showgrid="false"
     showguides="true"
     inkscape:guide-bbox="true"
     inkscape:zoom="3.4766083"
     inkscape:cx="56.412106"
     inkscape:cy="24.293236"
     inkscape:window-x="0"
     inkscape:window-y="25"
     inkscape:window-maximized="1"
     inkscape:current-layer="svg2" />
  <defs
     id="defs4">
    <linearGradient
       y1="545.8"
       x2="0"
       y2="517.8"
       gradientUnits="userSpaceOnUse"
       id="linearGradient6">
      <stop
         stop-color="#3889e9"
         id="stop8" />
      <stop
         offset="1"
         stop-color="#5ea5fb"
         id="stop10" />
    </linearGradient>
    <linearGradient
       id="0"
       gradientUnits="userSpaceOnUse"
       y1="545.14001"
       x2="0"
       y2="518.14001"
       xlink:href="#linearGradient6">
      <stop
         stop-color="#ec396c"
         id="stop13"
         offset="0"
         style="stop-color:#38396c;stop-opacity:1;" />
      <stop
         offset="1"
         stop-color="#ff709a"
         id="stop15"
         style="stop-color:#6b839a;stop-opacity:1;" />
    </linearGradient>
    <radialGradient
       inkscape:collect="always"
       xlink:href="#0"
       id="radialGradient3801"
       cx="400.57001"
       cy="531.79999"
       fx="400.57001"
       fy="531.79999"
       r="14"
       gradientUnits="userSpaceOnUse" />
    <radialGradient
       inkscape:collect="always"
       xlink:href="#0"
       id="radialGradient3848"
       gradientUnits="userSpaceOnUse"
       cx="400.57001"
       cy="531.79999"
       fx="400.57001"
       fy="531.79999"
       r="14" />
    <radialGradient
       inkscape:collect="always"
       xlink:href="#0-1"
       id="radialGradient3848-3"
       gradientUnits="userSpaceOnUse"
       cx="400.57001"
       cy="531.79999"
       fx="400.57001"
       fy="531.79999"
       r="14" />
    <linearGradient
       id="0-1"
       gradientUnits="userSpaceOnUse"
       y1="545.14001"
       x2="0"
       y2="518.14001"
       x1="0"
       spreadMethod="pad">
      <stop
         stop-color="#ec396c"
         id="stop13-8"
         offset="0"
         style="stop-color:#38396c;stop-opacity:1;" />
      <stop
         offset="1"
         stop-color="#ff709a"
         id="stop15-0"
         style="stop-color:#6b839a;stop-opacity:1;" />
    </linearGradient>
    <linearGradient
       y1="545.79999"
       x2="0"
       y2="517.79999"
       gradientUnits="userSpaceOnUse"
       id="linearGradient6-7">
      <stop
         stop-color="#3889e9"
         id="stop8-8" />
      <stop
         offset="1"
         stop-color="#5ea5fb"
         id="stop10-1" />
    </linearGradient>
    <radialGradient
       r="14"
       fy="531.79999"
       fx="400.57001"
       cy="531.79999"
       cx="400.57001"
       gradientUnits="userSpaceOnUse"
       id="radialGradient3870"
       xlink:href="#0-1"
       inkscape:collect="always" />
    <radialGradient
       inkscape:collect="always"
       xlink:href="#0-9"
       id="radialGradient3848-32"
       gradientUnits="userSpaceOnUse"
       cx="400.57001"
       cy="531.79999"
       fx="400.57001"
       fy="531.79999"
       r="14" />
    <linearGradient
       id="0-9"
       gradientUnits="userSpaceOnUse"
       y1="545.14001"
       x2="0"
       y2="518.14001"
       x1="0"
       spreadMethod="pad">
      <stop
         stop-color="#ec396c"
         id="stop13-2"
         offset="0"
         style="stop-color:#38396c;stop-opacity:1;" />
      <stop
         offset="1"
         stop-color="#ff709a"
         id="stop15-8"
         style="stop-color:#6b839a;stop-opacity:1;" />
    </linearGradient>
    <linearGradient
       y1="545.79999"
       x2="0"
       y2="517.79999"
       gradientUnits="userSpaceOnUse"
       id="linearGradient6-1">
      <stop
         stop-color="#3889e9"
         id="stop8-7" />
      <stop
         offset="1"
         stop-color="#5ea5fb"
         id="stop10-0" />
    </linearGradient>
    <radialGradient
       r="14"
       fy="531.79999"
       fx="400.57001"
       cy="531.79999"
       cx="400.57001"
       gradientUnits="userSpaceOnUse"
       id="radialGradient3870-3"
       xlink:href="#0-9"
       inkscape:collect="always" />
    <radialGradient
       r="14"
       fy="531.79999"
       fx="400.57001"
       cy="531.79999"
       cx="400.57001"
       gradientUnits="userSpaceOnUse"
       id="radialGradient3870-3-4"
       xlink:href="#0-9-7"
       inkscape:collect="always" />
    <linearGradient
       id="0-9-7"
       gradientUnits="userSpaceOnUse"
       y1="545.14001"
       x2="0"
       y2="518.14001"
       x1="0"
       spreadMethod="pad">
      <stop
         stop-color="#ec396c"
         id="stop13-2-0"
         offset="0"
         style="stop-color:#38396c;stop-opacity:1;" />
      <stop
         offset="1"
         stop-color="#ff709a"
         id="stop15-8-6"
         style="stop-color:#6b839a;stop-opacity:1;" />
    </linearGradient>
    <radialGradient
       r="14"
       fy="531.79999"
       fx="400.57001"
       cy="531.79999"
       cx="400.57001"
       gradientUnits="userSpaceOnUse"
       id="radialGradient3933"
       xlink:href="#0-9-7"
       inkscape:collect="always" />
    <radialGradient
       r="14"
       fy="531.79999"
       fx="400.57001"
       cy="531.79999"
       cx="400.57001"
       gradientUnits="userSpaceOnUse"
       id="radialGradient3870-3-5"
       xlink:href="#0-9-6"
       inkscape:collect="always" />
    <linearGradient
       id="0-9-6"
       gradientUnits="userSpaceOnUse"
       y1="545.14001"
       x2="0"
       y2="518.14001"
       x1="0"
       spreadMethod="pad">
      <stop
         stop-color="#ec396c"
         id="stop13-2-8"
         offset="0"
         style="stop-color:#38396c;stop-opacity:1;" />
      <stop
         offset="1"
         stop-color="#ff709a"
         id="stop15-8-7"
         style="stop-color:#6b839a;stop-opacity:1;" />
    </linearGradient>
    <radialGradient
       r="14"
       fy="531.79999"
       fx="400.57001"
       cy="531.79999"
       cx="400.57001"
       gradientUnits="userSpaceOnUse"
       id="radialGradient3933-6"
       xlink:href="#0-9-6"
       inkscape:collect="always" />
    <radialGradient
       inkscape:collect="always"
       xlink:href="#0"
       id="radialGradient3975"
       gradientUnits="userSpaceOnUse"
       cx="400.57001"
       cy="531.79999"
       fx="400.57001"
       fy="531.79999"
       r="14" />
  </defs>
  <g
     id="g3969"
     transform="translate(-0.10449786,1.2019289)">
    <circle
       sodipodi:ry="14"
       sodipodi:rx="14"
       sodipodi:cy="531.79999"
       sodipodi:cx="400.57001"
       style="fill:url(#radialGradient3975);fill-opacity:1"
       id="circle17"
       transform="matrix(1.71429,0,0,1.71429,-662.58866,-888.86133)"
       cx="400.57001"
       cy="531.79999"
       r="14"
       d="m 414.57001,531.79999 c 0,7.73198 -6.26802,14 -14,14 -7.73199,0 -14,-6.26802 -14,-14 0,-7.73199 6.26801,-14 14,-14 7.73198,0 14,6.26801 14,14 z" />
    <g
       id="g3797">
      <path
         d="m 32.675672,13.317723 c 0.37126,5.238384 -0.438075,8.804927 -3.591021,13.71654 -0.907836,1.264532 -3.061509,3.803813 -6.655742,5.331986 -3.511569,1.692284 -8.413408,1.706093 -12.089714,-0.686212 -3.7468702,-2.223315 -5.6320606,-6.396134 -5.8196447,-9.291101 -0.1816195,-2.991514 0.9471442,-4.736038 0.8584207,-4.73197 0.054525,0.06986 0.6355683,-1.926514 3.0137198,-3.752968 2.2419962,-1.854781 6.8098872,-2.995772 10.1119142,-0.232044 1.58901,1.240042 2.679296,3.280774 2.787744,5.210888 0.06381,1.949842 -0.871738,3.796804 -2.225261,4.875241 -2.99503,2.365897 -6.002031,0.629021 -6.694214,-0.417571 -3.5693419,-3.925131 2.60431,-9.439965 5.593923,-4.325708 -0.264929,-2.816199 -3.903592,-4.232069 -6.254186,-2.618432 -2.5230089,1.231112 -3.6993359,5.463807 -1.139138,8.427686 0.642359,0.78556 1.868952,1.862831 3.74991,2.298983 1.884468,0.467023 4.302797,-0.01187 6.191719,-1.522153 1.907031,-1.501394 3.224921,-4.086804 3.116369,-6.828888 -0.172168,-2.742352 -1.580978,-5.257764 -3.66717,-6.927319 C 15.628438,8.22811 9.6400948,9.7671402 6.9769102,12.043141 4.0365498,14.31259 3.3177752,16.772412 3.253649,16.689962 c 0.1045582,-0.0064 -1.2857849,2.149001 -1.0676151,5.860718 0.240637,3.617337 2.468315,8.441376 6.9129535,11.123095 4.3107016,2.851036 10.2795176,2.792012 14.2525736,0.849169 4.128691,-1.760338 6.594501,-4.678673 7.622189,-6.13062 3.64486,-5.632945 3.54501,-10.197485 1.697639,-15.072039"
         ns2:knockout="Off"
         ns2:rgbTrio="#4F008000FFFF"
         ns2:dimmedPercent="50"
         ns2:layer="yes"
         id="path3911"
         inkscape:connector-curvature="0"
         style="fill:#ffffff;fill-opacity:1" />
      <path
         d="m 15.743549,32.691137 c -0.498353,-5.227824 0.224137,-8.812967 3.256887,-13.799695 0.876862,-1.286203 2.968241,-3.877031 6.524305,-5.49203 3.469438,-1.777054 8.369502,-1.909889 12.102811,0.39244 3.799753,2.131679 5.785714,6.257488 6.043542,9.147046 0.254209,2.986221 -0.83186,4.75764 -0.743262,4.75142 -0.0562,-0.06852 -0.588602,1.941379 -2.9217,3.82504 -2.196294,1.908677 -6.735132,3.16025 -10.103298,0.47752 -1.618653,-1.20109 -2.758172,-3.214747 -2.913457,-5.141659 -0.111135,-1.947718 0.779286,-3.816852 2.106221,-4.927836 2.936697,-2.437931 5.984988,-0.774581 6.702381,0.254891 3.663602,3.837303 -2.374316,9.500421 -5.487233,4.46027 0.333233,2.808935 4.005204,4.136032 6.315923,2.465791 2.492371,-1.292013 3.56557,-5.552024 0.934157,-8.452862 -0.661246,-0.769728 -1.913638,-1.816897 -3.804628,-2.207246 -1.895254,-0.421125 -4.301241,0.116354 -6.152933,1.672055 -1.870013,1.547257 -3.12473,4.163906 -2.949629,6.902548 0.238713,2.737362 1.708186,5.217825 3.834303,6.836228 4.421403,3.510243 10.370612,1.826255 12.977743,-0.513745 2.884386,-2.340177 3.543216,-4.81673 3.609327,-4.735859 -0.104373,0.0089 1.233221,-2.179592 0.924986,-5.884919 C 45.671592,19.110111 43.327433,14.34159 38.818983,11.768586 34.440322,9.0230637 28.4747,9.2270139 24.549994,11.265755 c -4.084731,1.860075 -6.478946,4.837427 -7.471078,6.3139 -3.507001,5.719791 -3.296341,10.28056 -1.33115,15.108817"
         ns2:knockout="Off"
         ns2:rgbTrio="#4F008000FFFF"
         ns2:dimmedPercent="50"
         ns2:layer="yes"
         id="path3913"
         inkscape:connector-curvature="0"
         style="fill:#ffffff;fill-opacity:1" />
    </g>
  </g>
</svg>
